<svg xmlns="http://www.w3.org/2000/svg" xmlns:xlink="http://www.w3.org/1999/xlink" width="1080" zoomAndPan="magnify" viewBox="0 0 810 809.999993" height="1080" preserveAspectRatio="xMidYMid meet" version="1.0"><path fill="#264653" d="M 665.890625 144.09375 C 521.808594 0.015625 288.222656 0.015625 144.09375 144.09375 C 0.015625 288.171875 0.015625 521.761719 144.09375 665.890625 C 288.222656 809.96875 521.808594 809.96875 665.890625 665.890625 C 809.953125 521.761719 809.953125 288.15625 665.890625 144.09375 Z M 420.976562 624.140625 C 403.648438 634.597656 387.433594 639.8125 372.34375 639.8125 C 359.457031 639.8125 350.238281 635.515625 344.6875 626.84375 C 339.136719 618.191406 336.355469 606.976562 336.355469 593.15625 C 336.355469 574.996094 341.199219 532.558594 350.898438 465.957031 L 366.101562 357.367188 L 331.707031 363.367188 L 334.375 347.359375 L 402.007812 323.390625 C 425.671875 315.378906 445.75 307.429688 462.269531 299.417969 L 453.328125 348.710938 L 435.40625 471.972656 L 421.632812 575.863281 C 421.632812 585.226562 426.140625 589.875 435.179688 589.875 C 438.332031 589.875 442.628906 588.429688 448.050781 585.515625 C 453.472656 582.667969 458.199219 578.953125 462.269531 574.5625 L 471.601562 587.867188 C 455.160156 601.621094 438.285156 613.734375 420.976562 624.140625 Z M 461.949219 261.082031 C 451.058594 275.996094 436.742188 283.394531 418.980469 283.394531 C 408.3125 283.394531 399.433594 278.988281 392.339844 270.089844 C 387.015625 261.675781 383.234375 251.21875 381.015625 238.769531 C 381.015625 221.457031 386 205.691406 396.007812 191.472656 C 405.996094 177.265625 419.429688 170.15625 436.320312 170.15625 C 450.976562 170.15625 461.628906 173.613281 468.289062 180.515625 C 474.949219 187.371094 478.277344 196.828125 478.277344 208.78125 C 478.261719 228.8125 472.824219 246.234375 461.949219 261.082031 Z M 461.949219 261.082031 " fill-opacity="1" fill-rule="nonzero"/></svg>