<svg xmlns="http://www.w3.org/2000/svg" xmlns:xlink="http://www.w3.org/1999/xlink" width="1080" zoomAndPan="magnify" viewBox="0 0 810 809.999993" height="1080" preserveAspectRatio="xMidYMid meet" version="1.0"><defs><clipPath id="5eed2b76b8"><path d="M 24 46.070312 L 582 46.070312 L 582 603 L 24 603 Z M 24 46.070312 " clip-rule="nonzero"/></clipPath><clipPath id="2eb5202223"><path d="M 522 492 L 803 492 L 803 763.820312 L 522 763.820312 Z M 522 492 " clip-rule="nonzero"/></clipPath></defs><g clip-path="url(#5eed2b76b8)"><path fill="#000000" d="M 303.054688 45.324219 C 298.496094 45.324219 293.941406 45.4375 289.386719 45.660156 C 284.832031 45.882812 280.289062 46.21875 275.75 46.667969 C 271.214844 47.113281 266.691406 47.671875 262.179688 48.339844 C 257.671875 49.007812 253.179688 49.789062 248.710938 50.675781 C 244.238281 51.566406 239.789062 52.566406 235.367188 53.671875 C 230.945312 54.78125 226.554688 55.996094 222.191406 57.320312 C 217.828125 58.640625 213.5 60.070312 209.207031 61.605469 C 204.914062 63.144531 200.664062 64.78125 196.453125 66.527344 C 192.238281 68.273438 188.074219 70.117188 183.953125 72.066406 C 179.832031 74.015625 175.757812 76.066406 171.738281 78.214844 C 167.71875 80.363281 163.753906 82.609375 159.839844 84.953125 C 155.929688 87.296875 152.082031 89.734375 148.289062 92.265625 C 144.5 94.800781 140.773438 97.421875 137.109375 100.136719 C 133.449219 102.855469 129.855469 105.65625 126.332031 108.550781 C 122.808594 111.441406 119.355469 114.417969 115.980469 117.480469 C 112.601562 120.539062 109.300781 123.683594 106.078125 126.90625 C 102.851562 130.128906 99.710938 133.429688 96.648438 136.808594 C 93.585938 140.183594 90.609375 143.636719 87.71875 147.160156 C 84.824219 150.683594 82.019531 154.273438 79.304688 157.9375 C 76.589844 161.597656 73.964844 165.324219 71.433594 169.113281 C 68.898438 172.902344 66.460938 176.753906 64.117188 180.664062 C 61.773438 184.574219 59.527344 188.539062 57.378906 192.558594 C 55.230469 196.578125 53.179688 200.648438 51.230469 204.769531 C 49.28125 208.890625 47.433594 213.058594 45.691406 217.269531 C 43.945312 221.480469 42.304688 225.730469 40.769531 230.023438 C 39.234375 234.316406 37.804688 238.644531 36.480469 243.003906 C 35.15625 247.367188 33.941406 251.757812 32.832031 256.179688 C 31.726562 260.601562 30.726562 265.046875 29.835938 269.519531 C 28.949219 273.992188 28.167969 278.480469 27.5 282.988281 C 26.832031 287.5 26.273438 292.019531 25.828125 296.558594 C 25.378906 301.09375 25.042969 305.640625 24.820312 310.191406 C 24.597656 314.746094 24.484375 319.300781 24.484375 323.859375 C 24.484375 328.417969 24.597656 332.972656 24.820312 337.527344 C 25.042969 342.078125 25.378906 346.625 25.828125 351.160156 C 26.273438 355.695312 26.832031 360.21875 27.5 364.726562 C 28.167969 369.238281 28.949219 373.726562 29.835938 378.199219 C 30.726562 382.667969 31.726562 387.117188 32.832031 391.535156 C 33.941406 395.957031 35.15625 400.351562 36.480469 404.714844 C 37.804688 409.074219 39.234375 413.402344 40.769531 417.695312 C 42.304688 421.984375 43.945312 426.238281 45.691406 430.449219 C 47.433594 434.660156 49.28125 438.828125 51.230469 442.949219 C 53.179688 447.066406 55.230469 451.140625 57.378906 455.160156 C 59.527344 459.179688 61.773438 463.144531 64.117188 467.054688 C 66.460938 470.964844 68.902344 474.8125 71.433594 478.605469 C 73.964844 482.394531 76.589844 486.121094 79.304688 489.78125 C 82.023438 493.441406 84.828125 497.035156 87.71875 500.558594 C 90.609375 504.082031 93.589844 507.535156 96.648438 510.910156 C 99.710938 514.289062 102.855469 517.589844 106.078125 520.8125 C 109.300781 524.035156 112.601562 527.175781 115.980469 530.238281 C 119.359375 533.300781 122.808594 536.277344 126.332031 539.167969 C 129.859375 542.058594 133.453125 544.863281 137.113281 547.578125 C 140.773438 550.292969 144.5 552.917969 148.292969 555.453125 C 152.082031 557.984375 155.933594 560.421875 159.84375 562.765625 C 163.753906 565.109375 167.71875 567.355469 171.742188 569.503906 C 175.761719 571.652344 179.832031 573.703125 183.953125 575.652344 C 188.074219 577.597656 192.242188 579.445312 196.453125 581.191406 C 200.664062 582.933594 204.917969 584.574219 209.210938 586.109375 C 213.503906 587.644531 217.832031 589.074219 222.195312 590.398438 C 226.558594 591.722656 230.949219 592.9375 235.371094 594.046875 C 239.792969 595.152344 244.242188 596.152344 248.710938 597.039062 C 253.183594 597.929688 257.675781 598.710938 262.183594 599.378906 C 266.695312 600.046875 271.21875 600.605469 275.753906 601.050781 C 280.292969 601.5 284.835938 601.832031 289.390625 602.058594 C 293.945312 602.28125 298.5 602.394531 303.058594 602.394531 C 307.617188 602.394531 312.175781 602.28125 316.730469 602.058594 C 321.28125 601.832031 325.828125 601.5 330.363281 601.050781 C 334.902344 600.605469 339.425781 600.046875 343.933594 599.378906 C 348.445312 598.710938 352.9375 597.929688 357.40625 597.039062 C 361.878906 596.152344 366.324219 595.152344 370.75 594.046875 C 375.171875 592.9375 379.5625 591.722656 383.925781 590.398438 C 388.289062 589.074219 392.617188 587.644531 396.910156 586.109375 C 401.203125 584.574219 405.453125 582.933594 409.664062 581.191406 C 413.878906 579.445312 418.042969 577.597656 422.167969 575.648438 C 426.289062 573.699219 430.359375 571.652344 434.378906 569.503906 C 438.398438 567.355469 442.367188 565.109375 446.277344 562.765625 C 450.1875 560.421875 454.035156 557.984375 457.828125 555.449219 C 461.617188 552.917969 465.34375 550.292969 469.007812 547.578125 C 472.667969 544.863281 476.261719 542.058594 479.785156 539.167969 C 483.308594 536.277344 486.761719 533.300781 490.140625 530.238281 C 493.515625 527.175781 496.816406 524.035156 500.042969 520.8125 C 503.265625 517.585938 506.410156 514.285156 509.46875 510.910156 C 512.53125 507.53125 515.507812 504.082031 518.402344 500.558594 C 521.292969 497.035156 524.097656 493.441406 526.8125 489.78125 C 529.527344 486.117188 532.152344 482.390625 534.6875 478.601562 C 537.21875 474.8125 539.65625 470.960938 542 467.050781 C 544.34375 463.140625 546.59375 459.175781 548.742188 455.15625 C 550.890625 451.136719 552.9375 447.066406 554.886719 442.945312 C 556.835938 438.824219 558.683594 434.65625 560.429688 430.445312 C 562.175781 426.234375 563.816406 421.984375 565.351562 417.691406 C 566.886719 413.398438 568.316406 409.070312 569.640625 404.710938 C 570.960938 400.347656 572.179688 395.957031 573.285156 391.535156 C 574.394531 387.113281 575.390625 382.664062 576.28125 378.195312 C 577.171875 373.722656 577.949219 369.234375 578.621094 364.722656 C 579.289062 360.214844 579.847656 355.691406 580.292969 351.15625 C 580.738281 346.621094 581.074219 342.074219 581.300781 337.523438 C 581.523438 332.96875 581.632812 328.414062 581.632812 323.855469 C 581.628906 319.296875 581.511719 314.742188 581.285156 310.191406 C 581.054688 305.640625 580.714844 301.097656 580.265625 296.5625 C 579.8125 292.027344 579.25 287.507812 578.578125 283 C 577.90625 278.492188 577.121094 274.003906 576.230469 269.539062 C 575.335938 265.070312 574.332031 260.625 573.222656 256.203125 C 572.113281 251.785156 570.894531 247.394531 569.566406 243.035156 C 568.242188 238.675781 566.808594 234.351562 565.269531 230.0625 C 563.730469 225.773438 562.089844 221.523438 560.34375 217.3125 C 558.597656 213.105469 556.746094 208.941406 554.796875 204.820312 C 552.847656 200.703125 550.796875 196.636719 548.644531 192.617188 C 546.496094 188.597656 544.246094 184.636719 541.902344 180.730469 C 539.558594 176.820312 537.121094 172.972656 534.585938 169.183594 C 532.054688 165.398438 529.429688 161.671875 526.714844 158.011719 C 523.996094 154.355469 521.191406 150.761719 518.300781 147.242188 C 515.410156 143.71875 512.433594 140.269531 509.371094 136.894531 C 506.3125 133.515625 503.167969 130.21875 499.945312 126.996094 C 496.722656 123.773438 493.421875 120.632812 490.046875 117.570312 C 486.667969 114.511719 483.21875 111.535156 479.695312 108.644531 C 476.175781 105.753906 472.582031 102.949219 468.921875 100.234375 C 465.261719 97.519531 461.539062 94.894531 457.75 92.359375 C 453.960938 89.828125 450.113281 87.390625 446.203125 85.046875 C 442.292969 82.703125 438.332031 80.453125 434.3125 78.304688 C 430.292969 76.15625 426.226562 74.105469 422.105469 72.15625 C 417.988281 70.203125 413.824219 68.355469 409.613281 66.609375 C 405.402344 64.863281 401.152344 63.222656 396.863281 61.683594 C 392.570312 60.144531 388.246094 58.714844 383.886719 57.386719 C 379.527344 56.0625 375.136719 54.84375 370.714844 53.734375 C 366.296875 52.621094 361.851562 51.621094 357.378906 50.726562 C 352.910156 49.835938 348.421875 49.054688 343.914062 48.378906 C 339.40625 47.707031 334.886719 47.144531 330.351562 46.695312 C 325.816406 46.242188 321.273438 45.902344 316.71875 45.675781 C 312.167969 45.445312 307.613281 45.332031 303.054688 45.324219 Z M 303.054688 565.773438 C 299.097656 565.773438 295.136719 565.675781 291.183594 565.480469 C 287.230469 565.285156 283.28125 564.996094 279.339844 564.609375 C 275.398438 564.21875 271.472656 563.734375 267.554688 563.152344 C 263.636719 562.574219 259.738281 561.894531 255.855469 561.125 C 251.96875 560.351562 248.109375 559.484375 244.265625 558.523438 C 240.425781 557.558594 236.613281 556.503906 232.824219 555.355469 C 229.035156 554.207031 225.273438 552.964844 221.546875 551.628906 C 217.816406 550.296875 214.125 548.871094 210.46875 547.355469 C 206.808594 545.84375 203.191406 544.238281 199.609375 542.546875 C 196.03125 540.851562 192.496094 539.074219 189.003906 537.207031 C 185.511719 535.339844 182.066406 533.390625 178.671875 531.355469 C 175.273438 529.320312 171.929688 527.203125 168.636719 525 C 165.34375 522.800781 162.109375 520.523438 158.929688 518.164062 C 155.75 515.804688 152.628906 513.371094 149.566406 510.859375 C 146.507812 508.347656 143.507812 505.761719 140.574219 503.105469 C 137.640625 500.445312 134.773438 497.714844 131.972656 494.917969 C 129.175781 492.117188 126.445312 489.25 123.785156 486.316406 C 121.125 483.382812 118.542969 480.386719 116.027344 477.328125 C 113.515625 474.265625 111.082031 471.144531 108.722656 467.964844 C 106.363281 464.785156 104.085938 461.550781 101.886719 458.257812 C 99.683594 454.964844 97.566406 451.621094 95.53125 448.226562 C 93.496094 444.832031 91.546875 441.386719 89.679688 437.894531 C 87.8125 434.402344 86.03125 430.867188 84.339844 427.289062 C 82.648438 423.710938 81.042969 420.09375 79.527344 416.433594 C 78.011719 412.777344 76.585938 409.085938 75.253906 405.355469 C 73.917969 401.628906 72.679688 397.871094 71.527344 394.082031 C 70.378906 390.292969 69.324219 386.480469 68.359375 382.636719 C 67.398438 378.796875 66.53125 374.9375 65.757812 371.054688 C 64.988281 367.171875 64.308594 363.269531 63.730469 359.355469 C 63.148438 355.4375 62.664062 351.511719 62.277344 347.570312 C 61.886719 343.628906 61.597656 339.683594 61.402344 335.730469 C 61.207031 331.773438 61.109375 327.816406 61.109375 323.859375 C 61.109375 319.898438 61.207031 315.941406 61.402344 311.988281 C 61.597656 308.035156 61.886719 304.085938 62.277344 300.148438 C 62.664062 296.207031 63.148438 292.277344 63.730469 288.363281 C 64.308594 284.445312 64.988281 280.546875 65.761719 276.664062 C 66.53125 272.78125 67.398438 268.917969 68.363281 265.078125 C 69.324219 261.238281 70.378906 257.421875 71.53125 253.632812 C 72.679688 249.847656 73.921875 246.085938 75.253906 242.359375 C 76.589844 238.632812 78.011719 234.941406 79.527344 231.28125 C 81.042969 227.625 82.648438 224.007812 84.339844 220.425781 C 86.035156 216.847656 87.8125 213.3125 89.679688 209.820312 C 91.546875 206.328125 93.5 202.886719 95.535156 199.488281 C 97.570312 196.09375 99.6875 192.75 101.886719 189.457031 C 104.085938 186.167969 106.367188 182.929688 108.726562 179.75 C 111.085938 176.570312 113.519531 173.449219 116.03125 170.390625 C 118.542969 167.328125 121.128906 164.332031 123.789062 161.398438 C 126.449219 158.464844 129.175781 155.597656 131.976562 152.800781 C 134.777344 150 137.644531 147.269531 140.578125 144.613281 C 143.511719 141.953125 146.507812 139.367188 149.570312 136.855469 C 152.628906 134.34375 155.75 131.910156 158.933594 129.550781 C 162.113281 127.191406 165.347656 124.914062 168.640625 122.714844 C 171.933594 120.515625 175.277344 118.398438 178.675781 116.363281 C 182.070312 114.328125 185.515625 112.375 189.007812 110.507812 C 192.5 108.644531 196.035156 106.863281 199.613281 105.171875 C 203.195312 103.476562 206.8125 101.875 210.46875 100.359375 C 214.128906 98.84375 217.820312 97.417969 221.550781 96.085938 C 225.277344 94.753906 229.035156 93.511719 232.828125 92.363281 C 236.617188 91.210938 240.429688 90.15625 244.269531 89.195312 C 248.113281 88.234375 251.976562 87.367188 255.859375 86.59375 C 259.742188 85.820312 263.640625 85.144531 267.558594 84.5625 C 271.476562 83.980469 275.402344 83.496094 279.34375 83.109375 C 283.285156 82.722656 287.234375 82.429688 291.1875 82.234375 C 295.144531 82.042969 299.101562 81.945312 303.058594 81.945312 C 307.019531 81.945312 310.976562 82.042969 314.933594 82.234375 C 318.886719 82.429688 322.835938 82.722656 326.773438 83.109375 C 330.714844 83.496094 334.644531 83.984375 338.5625 84.5625 C 342.476562 85.144531 346.378906 85.820312 350.261719 86.59375 C 354.144531 87.367188 358.007812 88.234375 361.847656 89.195312 C 365.691406 90.15625 369.503906 91.210938 373.292969 92.363281 C 377.082031 93.511719 380.84375 94.753906 384.570312 96.085938 C 388.296875 97.421875 391.992188 98.84375 395.648438 100.359375 C 399.308594 101.875 402.925781 103.480469 406.507812 105.171875 C 410.085938 106.863281 413.621094 108.644531 417.113281 110.511719 C 420.605469 112.375 424.050781 114.328125 427.445312 116.363281 C 430.84375 118.398438 434.1875 120.515625 437.480469 122.714844 C 440.773438 124.914062 444.007812 127.191406 447.1875 129.550781 C 450.371094 131.910156 453.492188 134.34375 456.550781 136.855469 C 459.613281 139.367188 462.609375 141.953125 465.542969 144.613281 C 468.476562 147.269531 471.34375 150 474.144531 152.800781 C 476.945312 155.597656 479.671875 158.464844 482.332031 161.398438 C 484.992188 164.332031 487.578125 167.328125 490.089844 170.390625 C 492.601562 173.449219 495.035156 176.570312 497.394531 179.75 C 499.753906 182.929688 502.035156 186.164062 504.234375 189.457031 C 506.433594 192.75 508.550781 196.09375 510.585938 199.488281 C 512.621094 202.882812 514.574219 206.328125 516.441406 209.820312 C 518.308594 213.3125 520.085938 216.847656 521.78125 220.425781 C 523.472656 224.003906 525.078125 227.621094 526.59375 231.28125 C 528.109375 234.9375 529.53125 238.628906 530.867188 242.359375 C 532.199219 246.085938 533.441406 249.84375 534.589844 253.632812 C 535.742188 257.421875 536.796875 261.234375 537.757812 265.074219 C 538.71875 268.914062 539.589844 272.777344 540.359375 276.660156 C 541.132812 280.542969 541.808594 284.441406 542.390625 288.359375 C 542.972656 292.273438 543.457031 296.203125 543.84375 300.144531 C 544.234375 304.082031 544.523438 308.03125 544.71875 311.984375 C 544.914062 315.9375 545.007812 319.894531 545.007812 323.855469 C 545.003906 327.8125 544.902344 331.769531 544.703125 335.71875 C 544.507812 339.671875 544.210938 343.621094 543.820312 347.558594 C 543.425781 351.496094 542.9375 355.421875 542.355469 359.335938 C 541.769531 363.25 541.089844 367.148438 540.3125 371.03125 C 539.539062 374.914062 538.667969 378.773438 537.703125 382.609375 C 536.738281 386.449219 535.679688 390.261719 534.527344 394.046875 C 533.375 397.835938 532.132812 401.589844 530.796875 405.316406 C 529.460938 409.042969 528.035156 412.734375 526.515625 416.390625 C 525 420.046875 523.394531 423.660156 521.699219 427.238281 C 520.007812 430.816406 518.226562 434.347656 516.359375 437.839844 C 514.492188 441.328125 512.539062 444.769531 510.503906 448.164062 C 508.464844 451.558594 506.347656 454.902344 504.148438 458.191406 C 501.945312 461.480469 499.667969 464.714844 497.308594 467.894531 C 494.949219 471.074219 492.515625 474.191406 490.003906 477.25 C 487.492188 480.308594 484.90625 483.304688 482.246094 486.238281 C 479.589844 489.171875 476.859375 492.035156 474.0625 494.835938 C 471.261719 497.632812 468.394531 500.363281 465.464844 503.019531 C 462.53125 505.679688 459.535156 508.261719 456.476562 510.773438 C 453.414062 513.285156 450.296875 515.722656 447.117188 518.078125 C 443.9375 520.4375 440.703125 522.71875 437.414062 524.917969 C 434.121094 527.117188 430.777344 529.234375 427.382812 531.269531 C 423.988281 533.304688 420.546875 535.257812 417.058594 537.125 C 413.566406 538.992188 410.03125 540.773438 406.453125 542.46875 C 402.878906 544.160156 399.261719 545.765625 395.605469 547.285156 C 391.949219 548.800781 388.257812 550.226562 384.53125 551.5625 C 380.804688 552.898438 377.046875 554.140625 373.261719 555.292969 C 369.472656 556.445312 365.660156 557.503906 361.820312 558.46875 C 357.980469 559.433594 354.121094 560.304688 350.238281 561.078125 C 346.355469 561.855469 342.457031 562.535156 338.542969 563.117188 C 334.628906 563.703125 330.703125 564.191406 326.761719 564.582031 C 322.824219 564.972656 318.878906 565.269531 314.921875 565.46875 C 310.96875 565.667969 307.015625 565.769531 303.054688 565.773438 Z M 303.054688 565.773438 " fill-opacity="1" fill-rule="nonzero"/></g><g clip-path="url(#2eb5202223)"><path fill="#000000" d="M 776.214844 621.148438 L 659.527344 514.027344 C 658.539062 513.117188 657.527344 512.234375 656.496094 511.375 C 655.464844 510.515625 654.414062 509.683594 653.34375 508.875 C 652.269531 508.070312 651.179688 507.289062 650.070312 506.535156 C 648.957031 505.78125 647.828125 505.058594 646.683594 504.359375 C 645.539062 503.660156 644.375 502.992188 643.195312 502.351562 C 642.015625 501.710938 640.824219 501.097656 639.613281 500.515625 C 638.40625 499.933594 637.183594 499.382812 635.945312 498.859375 C 634.710938 498.335938 633.460938 497.84375 632.203125 497.382812 C 630.941406 496.921875 629.671875 496.492188 628.390625 496.09375 C 627.109375 495.695312 625.816406 495.328125 624.519531 494.996094 C 623.21875 494.660156 621.910156 494.355469 620.597656 494.085938 C 619.28125 493.816406 617.960938 493.574219 616.636719 493.371094 C 615.308594 493.164062 613.980469 492.992188 612.644531 492.847656 C 611.3125 492.707031 609.972656 492.601562 608.632812 492.527344 C 607.292969 492.449219 605.953125 492.410156 604.609375 492.398438 C 603.269531 492.390625 601.925781 492.414062 600.585938 492.46875 C 599.246094 492.527344 597.90625 492.617188 596.570312 492.738281 C 595.234375 492.859375 593.902344 493.015625 592.574219 493.203125 C 591.246094 493.390625 589.921875 493.613281 588.601562 493.863281 C 587.285156 494.117188 585.972656 494.402344 584.671875 494.71875 C 583.367188 495.035156 582.070312 495.386719 580.785156 495.765625 C 579.496094 496.148438 578.222656 496.558594 576.953125 497.003906 C 575.6875 497.445312 574.433594 497.921875 573.191406 498.425781 C 571.945312 498.929688 570.714844 499.464844 569.5 500.03125 C 568.28125 500.597656 567.082031 501.191406 565.890625 501.816406 C 564.703125 502.441406 563.53125 503.09375 562.378906 503.777344 C 561.222656 504.460938 560.082031 505.167969 558.960938 505.90625 C 557.84375 506.644531 556.738281 507.410156 555.65625 508.203125 C 554.574219 508.996094 553.511719 509.8125 552.46875 510.65625 C 551.425781 511.503906 550.402344 512.371094 549.402344 513.265625 C 548.402344 514.160156 547.425781 515.078125 546.46875 516.023438 C 545.515625 516.964844 544.582031 517.929688 543.675781 518.917969 C 542.769531 519.90625 541.886719 520.917969 541.027344 521.949219 C 540.167969 522.980469 539.335938 524.03125 538.53125 525.105469 C 537.722656 526.175781 536.945312 527.269531 536.191406 528.378906 C 535.4375 529.488281 534.714844 530.617188 534.015625 531.765625 C 533.320312 532.910156 532.648438 534.074219 532.011719 535.253906 C 531.371094 536.433594 530.757812 537.625 530.175781 538.835938 C 529.597656 540.046875 529.042969 541.269531 528.523438 542.503906 C 528 543.742188 527.511719 544.988281 527.050781 546.25 C 526.589844 547.511719 526.160156 548.78125 525.765625 550.0625 C 525.367188 551.34375 525 552.636719 524.667969 553.933594 C 524.332031 555.234375 524.03125 556.539062 523.757812 557.855469 C 523.488281 559.167969 523.25 560.488281 523.046875 561.816406 C 522.839844 563.140625 522.667969 564.472656 522.527344 565.804688 C 522.390625 567.140625 522.28125 568.476562 522.207031 569.816406 C 522.132812 571.15625 522.09375 572.496094 522.082031 573.839844 C 522.074219 575.179688 522.101562 576.523438 522.15625 577.863281 C 522.214844 579.203125 522.304688 580.542969 522.429688 581.878906 C 522.550781 583.214844 522.707031 584.546875 522.898438 585.875 C 523.085938 587.203125 523.308594 588.527344 523.5625 589.84375 C 523.816406 591.160156 524.101562 592.472656 524.417969 593.777344 C 524.738281 595.078125 525.085938 596.375 525.46875 597.660156 C 525.851562 598.945312 526.261719 600.222656 526.707031 601.488281 C 527.152344 602.753906 527.628906 604.007812 528.132812 605.253906 C 528.640625 606.496094 529.175781 607.726562 529.742188 608.941406 C 530.308594 610.15625 530.90625 611.359375 531.53125 612.546875 C 532.15625 613.734375 532.808594 614.90625 533.492188 616.058594 C 534.175781 617.214844 534.886719 618.351562 535.625 619.472656 C 536.363281 620.59375 537.132812 621.695312 537.925781 622.777344 C 538.71875 623.859375 539.535156 624.921875 540.382812 625.960938 C 541.226562 627.003906 542.097656 628.027344 542.992188 629.023438 C 543.886719 630.023438 544.808594 631 545.75 631.957031 C 546.695312 632.910156 547.660156 633.839844 548.648438 634.746094 L 665.339844 741.871094 C 669.070312 745.320312 673.09375 748.394531 677.402344 751.089844 C 681.714844 753.789062 686.238281 756.058594 690.972656 757.90625 C 695.710938 759.757812 700.578125 761.148438 705.574219 762.082031 C 710.570312 763.019531 715.613281 763.480469 720.695312 763.472656 C 721.878906 763.472656 723.074219 763.445312 724.265625 763.398438 C 726.277344 763.316406 728.28125 763.15625 730.28125 762.921875 C 732.277344 762.6875 734.265625 762.382812 736.242188 762 C 738.21875 761.621094 740.179688 761.167969 742.121094 760.644531 C 744.066406 760.121094 745.988281 759.527344 747.886719 758.859375 C 749.785156 758.195312 751.65625 757.460938 753.503906 756.65625 C 755.347656 755.851562 757.160156 754.984375 758.941406 754.046875 C 760.722656 753.109375 762.46875 752.105469 764.175781 751.042969 C 765.882812 749.976562 767.546875 748.847656 769.171875 747.660156 C 770.796875 746.472656 772.375 745.226562 773.910156 743.921875 C 775.441406 742.617188 776.921875 741.257812 778.355469 739.84375 C 779.789062 738.429688 781.167969 736.964844 782.492188 735.449219 C 783.816406 733.933594 785.082031 732.375 786.292969 730.765625 C 787.5 729.15625 788.648438 727.503906 789.738281 725.8125 C 790.824219 724.117188 791.847656 722.386719 792.808594 720.621094 C 793.769531 718.851562 794.664062 717.050781 795.492188 715.214844 C 796.320312 713.378906 797.078125 711.519531 797.769531 709.628906 C 798.457031 707.738281 799.078125 705.824219 799.628906 703.886719 C 800.175781 701.953125 800.65625 700 801.0625 698.027344 C 801.464844 696.058594 801.796875 694.074219 802.058594 692.078125 C 802.316406 690.082031 802.503906 688.078125 802.613281 686.070312 C 802.726562 684.0625 802.765625 682.050781 802.726562 680.039062 C 802.691406 678.027344 802.582031 676.019531 802.398438 674.015625 C 802.214844 672.011719 801.957031 670.015625 801.625 668.03125 C 801.292969 666.046875 800.890625 664.078125 800.414062 662.121094 C 799.9375 660.164062 799.390625 658.230469 798.769531 656.316406 C 798.152344 654.402344 797.464844 652.511719 796.707031 650.648438 C 795.949219 648.78125 795.121094 646.949219 794.230469 645.144531 C 793.335938 643.34375 792.378906 641.574219 791.355469 639.839844 C 790.332031 638.109375 789.246094 636.414062 788.097656 634.761719 C 786.949219 633.109375 785.742188 631.5 784.476562 629.9375 C 783.207031 628.375 781.886719 626.859375 780.507812 625.390625 C 779.128906 623.925781 777.699219 622.511719 776.214844 621.148438 Z M 754.164062 712.179688 C 752.15625 714.378906 749.953125 716.359375 747.554688 718.121094 C 745.152344 719.882812 742.601562 721.394531 739.902344 722.648438 C 737.203125 723.902344 734.40625 724.882812 731.511719 725.582031 C 728.617188 726.28125 725.683594 726.691406 722.707031 726.808594 C 719.730469 726.957031 716.769531 726.8125 713.820312 726.367188 C 710.871094 725.921875 707.996094 725.1875 705.195312 724.167969 C 702.394531 723.144531 699.726562 721.851562 697.183594 720.292969 C 694.644531 718.730469 692.285156 716.933594 690.105469 714.898438 L 573.417969 607.773438 C 571.777344 606.265625 570.253906 604.644531 568.851562 602.914062 C 567.449219 601.179688 566.179688 599.355469 565.046875 597.433594 C 563.914062 595.515625 562.925781 593.523438 562.085938 591.457031 C 561.246094 589.394531 560.5625 587.277344 560.035156 585.113281 C 559.507812 582.945312 559.144531 580.753906 558.9375 578.53125 C 558.734375 576.3125 558.695312 574.089844 558.820312 571.863281 C 558.945312 569.640625 559.230469 567.433594 559.679688 565.25 C 560.128906 563.066406 560.734375 560.929688 561.5 558.835938 C 562.265625 556.742188 563.179688 554.714844 564.242188 552.753906 C 565.308594 550.796875 566.507812 548.925781 567.847656 547.144531 C 569.1875 545.363281 570.652344 543.6875 572.238281 542.121094 C 573.824219 540.554688 575.515625 539.113281 577.316406 537.796875 C 579.117188 536.480469 581.003906 535.304688 582.976562 534.265625 C 584.949219 533.226562 586.988281 532.339844 589.089844 531.601562 C 591.195312 530.863281 593.339844 530.285156 595.53125 529.863281 C 597.71875 529.445312 599.929688 529.183594 602.15625 529.089844 C 602.816406 529.054688 603.480469 529.046875 604.132812 529.046875 C 606.945312 529.039062 609.734375 529.296875 612.5 529.816406 C 615.261719 530.332031 617.957031 531.101562 620.574219 532.125 C 623.195312 533.148438 625.699219 534.40625 628.082031 535.898438 C 630.46875 537.390625 632.691406 539.089844 634.757812 541 L 751.445312 648.121094 C 752.539062 649.128906 753.578125 650.183594 754.566406 651.292969 C 755.554688 652.398438 756.488281 653.554688 757.363281 654.75 C 758.238281 655.949219 759.050781 657.191406 759.804688 658.46875 C 760.558594 659.746094 761.25 661.058594 761.875 662.40625 C 762.5 663.753906 763.054688 665.125 763.546875 666.527344 C 764.035156 667.929688 764.457031 669.351562 764.808594 670.792969 C 765.15625 672.234375 765.4375 673.691406 765.644531 675.160156 C 765.851562 676.628906 765.988281 678.105469 766.050781 679.589844 C 766.113281 681.074219 766.105469 682.554688 766.023438 684.039062 C 765.9375 685.519531 765.785156 686.992188 765.558594 688.460938 C 765.328125 689.925781 765.03125 691.378906 764.660156 692.816406 C 764.292969 694.253906 763.851562 695.671875 763.34375 697.066406 C 762.835938 698.460938 762.261719 699.824219 761.617188 701.164062 C 760.976562 702.503906 760.269531 703.804688 759.5 705.074219 C 758.726562 706.34375 757.898438 707.570312 757.003906 708.757812 C 756.113281 709.945312 755.167969 711.085938 754.164062 712.179688 Z M 754.164062 712.179688 " fill-opacity="1" fill-rule="nonzero"/></g></svg>